<svg width="20" height="20" viewBox="0 0 20 20" fill="none" xmlns="http://www.w3.org/2000/svg">
<g clip-path="url(#clip0_2_111)">
<path d="M17.2499 0.799988C16.7515 0.799988 16.2546 0.9953 15.8749 1.37499L15.5499 1.69999L18.2999 4.44999C18.2984 4.45155 18.6249 4.12499 18.6249 4.12499C19.3859 3.36405 19.3843 2.13436 18.6249 1.37499C18.2437 0.9953 17.7484 0.799988 17.2499 0.799988ZM14.9374 2.41249C14.8468 2.42499 14.7624 2.4703 14.6999 2.53749L1.72494 15.525C1.67338 15.5719 1.63432 15.6328 1.61244 15.7L0.812443 18.7C0.776506 18.8375 0.817131 18.9828 0.917131 19.0828C1.01713 19.1828 1.16244 19.2234 1.29994 19.1875L4.29994 18.3875C4.36713 18.3656 4.42807 18.3266 4.47494 18.275L17.4624 5.29999C17.6218 5.1453 17.6234 4.89061 17.4687 4.73124C17.314 4.57186 17.0593 4.5703 16.8999 4.72499L3.98744 17.6375L2.36244 16.0125L15.2749 3.09999C15.3953 2.98436 15.4312 2.80468 15.364 2.65155C15.2968 2.49843 15.1421 2.40311 14.9749 2.41249C14.9624 2.41249 14.9499 2.41249 14.9374 2.41249Z" fill="black"/>
</g>
<defs>
<clipPath id="clip0_2_111">
<rect width="20" height="20" fill="white"/>
</clipPath>
</defs>
</svg>
